# xmcd
#
# Track frame offsets: 
#        150
#        18085
#        46472
#        77187
#        105317
#        133880
#        143080
#        181022
#        206642
#        238232
#        262685
#        295585
#
# Disc length: 4270 seconds
#
# Revision: 4
# Processed by: cddbd v1.5.2PL0 Copyright (c) Steve Scherf et al.
# Submitted via: ExactAudioCopy v1.3
#
DISCID=9d10ac0c
DTITLE=Various Artist - Misica Jazz Jazz and Asia
DYEAR=2004
DGENRE=Jazz
TTITLE0=Carla Bley and Paul Haines - Carla Bley and Paul Haines - AIR
TTITLE1=Zakir Hussain - Zakir Hussain - Zakir
TTITLE2=Charlie Mariano and Karnataka College Of Percussion - Charlie Ma
TTITLE2=riano and Karnataka College Of Percussion - Saptarshi
TTITLE3=Codona - Codona - Codona
TTITLE4=Shankar - Shankar - Song For Everyone
TTITLE5=Paul Giger - Paul Giger - Vindonissa-Intro
TTITLE6=Collin Walcott - Collin Walcott - Moon Lake
TTITLE7=Susanne Abbuehl - Susanne Abbuehl - Mane Na
TTITLE8=John Surman - John Surman - Mother of Light - Persepolis
TTITLE9=Garbarek and UF Ali Khan and Musician from Pakistan - Garbarek and U
TTITLE9=F Ali Khan and Musician from Pakistan - Saga
TTITLE10=Mat Maneri - Mat Maneri - Sun Ship
TTITLE11=Shankar - Shankar - Reason
EXTD=YEAR: 2003
EXTT0=
EXTT1=
EXTT2=
EXTT3=
EXTT4=
EXTT5=
EXTT6=
EXTT7=
EXTT8=
EXTT9=
EXTT10=
EXTT11=
PLAYORDER=
